<svg width="31" height="32" viewBox="0 0 31 32" fill="none" xmlns="http://www.w3.org/2000/svg">
<path d="M0 2.62095C0 2.10933 0.148457 1.61867 0.412713 1.2569C0.676969 0.895134 1.03538 0.691895 1.40909 0.691895H26.7727C27.1464 0.691895 27.5048 0.895134 27.7691 1.2569C28.0334 1.61867 28.1818 2.10933 28.1818 2.62095C28.1818 3.13257 28.0334 3.62323 27.7691 3.985C27.5048 4.34677 27.1464 4.55001 26.7727 4.55001H1.40909C1.03538 4.55001 0.676969 4.34677 0.412713 3.985C0.148457 3.62323 0 3.13257 0 2.62095ZM0 29.6278C0 29.1161 0.148457 28.6255 0.412713 28.2637C0.676969 27.9019 1.03538 27.6987 1.40909 27.6987H23.9545C24.3283 27.6987 24.6867 27.9019 24.9509 28.2637C25.2152 28.6255 25.3636 29.1161 25.3636 29.6278C25.3636 30.1394 25.2152 30.63 24.9509 30.9918C24.6867 31.3536 24.3283 31.5568 23.9545 31.5568H1.40909C1.03538 31.5568 0.676969 31.3536 0.412713 30.9918C0.148457 30.63 0 30.1394 0 29.6278ZM1.40909 14.1953C1.03538 14.1953 0.676969 14.3985 0.412713 14.7603C0.148457 15.1221 0 15.6127 0 16.1244C0 16.636 0.148457 17.1266 0.412713 17.4884C0.676969 17.8502 1.03538 18.0534 1.40909 18.0534H29.5909C29.9646 18.0534 30.323 17.8502 30.5873 17.4884C30.8515 17.1266 31 16.636 31 16.1244C31 15.6127 30.8515 15.1221 30.5873 14.7603C30.323 14.3985 29.9646 14.1953 29.5909 14.1953H1.40909Z" fill="black"/>
</svg>
